<svg width="135" height="135" viewBox="0 0 135 135" fill="none" xmlns="http://www.w3.org/2000/svg">
<path d="M67.498 131.498C102.844 131.498 131.498 102.844 131.498 67.498C131.498 32.1518 102.844 3.49805 67.498 3.49805C32.1518 3.49805 3.49805 32.1518 3.49805 67.498C3.49805 102.844 32.1518 131.498 67.498 131.498Z" fill="#EEE7FC"/>
<path d="M10.3588 115.583C12.018 115.263 13.6269 116.371 13.9467 118.03C14.2666 119.689 13.1807 121.294 11.5215 121.614C9.86234 121.934 8.23534 120.852 7.91549 119.193C7.59564 117.534 8.69964 115.903 10.3588 115.583ZM5.55506 109.783C6.61114 109.579 7.63514 110.285 7.83871 111.341C8.04229 112.397 7.35117 113.418 6.29509 113.622C5.23909 113.825 4.20354 113.137 3.99997 112.081C3.79639 111.025 4.49906 109.986 5.55506 109.783ZM127.339 17.5283C128.999 17.2084 130.607 18.3167 130.927 19.9758C131.247 21.635 130.161 23.2396 128.502 23.5595C126.843 23.8794 125.216 22.7977 124.896 21.1385C124.576 19.4794 125.68 17.8481 127.339 17.5283ZM122.536 11.7284C123.592 11.5248 124.616 12.2302 124.819 13.2862C125.023 14.3422 124.332 15.3635 123.276 15.5671C122.22 15.7707 121.184 15.0822 120.98 14.0262C120.777 12.9702 121.48 11.932 122.536 11.7284Z" fill="#C6B2F1"/>
<path d="M109.119 72.7852V102.065C109.119 108.615 89.0275 113.847 64.2762 113.847C39.5248 113.847 19.4336 108.615 19.4336 102.065V72.7852C19.4336 79.3356 39.5248 84.5673 64.2762 84.5673C89.0276 84.5673 109.119 79.3356 109.119 72.7852Z" fill="url(#paint0_linear_312_8010)"/>
<path d="M109.121 72.784C109.121 79.3179 89.0478 84.5647 64.2537 84.5647C39.5073 84.5647 19.4336 79.3179 19.4336 72.784C19.4336 66.2996 39.5073 61.0527 64.2537 61.0527C89.0478 61.0527 109.121 66.2996 109.121 72.784Z" fill="url(#paint1_linear_312_8010)"/>
<path d="M104.107 69.7518C104.107 75.555 86.2781 80.2151 64.2569 80.2151C42.278 80.2151 24.4492 75.555 24.4492 69.7518C24.4492 63.9926 42.278 59.3325 64.2569 59.3325C86.2781 59.3325 104.107 63.9926 104.107 69.7518Z" fill="url(#paint2_linear_312_8010)"/>
<path d="M109.119 34.1797V63.4591C109.119 70.0099 89.0275 75.2415 64.2762 75.2415C39.5248 75.2415 19.4336 70.0099 19.4336 63.4591V34.1797C19.4336 40.7302 39.5248 45.9618 64.2762 45.9618C89.0276 45.9618 109.119 40.7302 109.119 34.1797Z" fill="url(#paint3_linear_312_8010)"/>
<path d="M109.121 34.1785C109.121 40.7124 89.0478 45.9593 64.2537 45.9593C39.5073 45.9593 19.4336 40.7124 19.4336 34.1785C19.4336 27.6941 39.5073 22.4473 64.2537 22.4473C89.0478 22.4473 109.121 27.6941 109.121 34.1785Z" fill="url(#paint4_linear_312_8010)"/>
<path d="M104.107 31.1463C104.107 36.9495 86.2781 41.6096 64.2569 41.6096C42.278 41.6096 24.4492 36.9495 24.4492 31.1463C24.4492 25.3871 42.278 20.7271 64.2569 20.7271C86.2781 20.7271 104.107 25.3871 104.107 31.1463Z" fill="url(#paint5_linear_312_8010)"/>
<path d="M29.9304 50.6772C29.9304 52.0573 28.8108 53.164 27.4438 53.164C26.0767 53.164 24.957 52.0573 24.957 50.6772C24.957 49.3102 26.0767 48.2036 27.4438 48.2036C28.8108 48.2036 29.9304 49.3102 29.9304 50.6772Z" fill="white"/>
<path d="M29.9304 58.7309C29.9304 60.111 28.8108 61.2177 27.4438 61.2177C26.0767 61.2177 24.957 60.111 24.957 58.7309C24.957 57.3639 26.0767 56.2573 27.4438 56.2573C28.8108 56.2573 29.9304 57.3639 29.9304 58.7309Z" fill="white"/>
<path d="M29.9304 90.4731C29.9304 91.8532 28.8108 92.9599 27.4438 92.9599C26.0767 92.9599 24.957 91.8532 24.957 90.4731C24.957 89.1061 26.0767 87.9995 27.4438 87.9995C28.8108 87.9995 29.9304 89.1061 29.9304 90.4731Z" fill="white"/>
<path d="M29.9304 98.5264C29.9304 99.9064 28.8108 101.013 27.4438 101.013C26.0767 101.013 24.957 99.9064 24.957 98.5264C24.957 97.1593 26.0767 96.0527 27.4438 96.0527C28.8108 96.0527 29.9304 97.1593 29.9304 98.5264Z" fill="white"/>
<path d="M122.625 123.158H90.7009C85.4311 123.158 82.1608 117.416 84.8598 112.885L100.817 86.0139C103.457 81.5813 109.879 81.5813 112.509 86.0139L128.466 112.885C131.165 117.416 127.895 123.158 122.625 123.158Z" fill="#7239EA"/>
<path d="M110.297 97.1612L109.019 105.312C108.837 106.472 107.838 107.326 106.664 107.326C105.49 107.326 104.491 106.472 104.309 105.312L103.031 97.1612C102.805 95.7151 103.922 94.4082 105.386 94.4082H107.942C109.406 94.4082 110.524 95.7151 110.297 97.1612ZM109.113 112.61V112.657C109.113 114.006 108.013 115.096 106.664 115.096C105.335 115.096 104.216 114.018 104.216 112.657V112.61C104.216 111.252 105.315 110.162 106.664 110.162C108.003 110.162 109.113 111.245 109.113 112.61Z" fill="white"/>
<defs>
<linearGradient id="paint0_linear_312_8010" x1="63.504" y1="109.079" x2="64.858" y2="71.1723" gradientUnits="userSpaceOnUse">
<stop stop-color="#CFB8FF"/>
<stop offset="1" stop-color="#D9D6E8"/>
</linearGradient>
<linearGradient id="paint1_linear_312_8010" x1="64.2772" y1="61.1573" x2="64.2772" y2="79.6663" gradientUnits="userSpaceOnUse">
<stop stop-color="#D6DCE8"/>
<stop offset="1" stop-color="#F1F3F9"/>
</linearGradient>
<linearGradient id="paint2_linear_312_8010" x1="24.4487" y1="69.7737" x2="104.107" y2="69.7737" gradientUnits="userSpaceOnUse">
<stop stop-color="#A68ED7"/>
<stop offset="1" stop-color="#B391D6"/>
</linearGradient>
<linearGradient id="paint3_linear_312_8010" x1="64.858" y1="75" x2="64.858" y2="32.5669" gradientUnits="userSpaceOnUse">
<stop stop-color="#D9D6E8"/>
<stop offset="1" stop-color="#CFB8FF"/>
</linearGradient>
<linearGradient id="paint4_linear_312_8010" x1="19.4332" y1="34.2031" x2="109.121" y2="34.2031" gradientUnits="userSpaceOnUse">
<stop stop-color="#DBCEEB"/>
<stop offset="1" stop-color="#F1F3F9"/>
</linearGradient>
<linearGradient id="paint5_linear_312_8010" x1="24.4487" y1="31.1682" x2="104.107" y2="31.1682" gradientUnits="userSpaceOnUse">
<stop stop-color="#A68ED7"/>
<stop offset="1" stop-color="#B391D6"/>
</linearGradient>
</defs>
</svg>
