<svg width="32" height="32" viewBox="0 0 32 32" fill="none" xmlns="http://www.w3.org/2000/svg">
<g clip-path="url(#clip0_1_926)">
<path fill-rule="evenodd" clip-rule="evenodd" d="M26.7054 24.3312C28.3339 24.1037 29.851 25.1623 30.0956 26.6961C30.3402 28.2329 29.2132 29.6618 27.5847 29.8922C25.9561 30.1196 24.4359 29.0611 24.1944 27.5272C23.9498 25.9904 25.0737 24.5616 26.7054 24.3312ZM15.5841 28.7753C15.3395 27.2385 13.8224 26.18 12.1907 26.4104C10.5621 26.6378 9.43823 28.0696 9.67973 29.6035C9.92433 31.1402 11.4414 32.1988 13.0731 31.9684C14.7017 31.738 15.8256 30.3092 15.5841 28.7753ZM6.50898 13.2235C6.35046 12.2073 7.09384 11.2613 8.17192 11.1067L24.256 8.80302L24.321 8.79428C25.0208 8.67763 25.6183 8.30729 26.0177 7.79697C26.4295 7.27499 26.6307 6.60138 26.5193 5.90152V5.89569C26.4078 5.20749 26.0084 4.62427 25.4511 4.23643C24.8969 3.84859 24.1786 3.65905 23.4386 3.76403L23.2838 3.78444L2.28339 6.82446C1.19572 6.98193 0.180185 6.27478 0.0210436 5.24919C-0.13624 4.23439 0.604974 3.29016 1.6815 3.13444L22.8661 0.0693463L23.021 0.0460176H23.0364C24.7858 -0.155192 26.4762 0.314298 27.8076 1.24161C29.1823 2.20101 30.173 3.6503 30.4424 5.36204L30.4671 5.50785V5.52243C30.6746 7.13502 30.204 8.69513 29.2597 9.93738L29.2937 9.96071C30.6405 10.8997 31.6189 12.314 31.9099 13.982L31.9502 14.1336V14.2444C32.1669 15.8891 31.6684 17.4842 30.6808 18.7381C29.6653 20.0329 28.1265 20.9631 26.309 21.2197L26.1542 21.2401H26.1511L14.2626 22.9116C13.1774 23.0641 12.1672 22.3576 12.0086 21.3349C11.8507 20.3169 12.5972 19.3706 13.6775 19.2187L25.7332 17.525L25.7394 17.5221C26.47 17.4171 27.0924 17.041 27.5042 16.519C27.9159 15.9941 28.1141 15.3205 28.0057 14.6235V14.6206C27.8943 13.9324 27.4949 13.3434 26.9376 12.9555C26.3834 12.5706 25.6743 12.3811 24.9375 12.4831H24.9189L24.8229 12.4977L8.76854 14.7985C7.68242 14.9542 6.66905 14.2479 6.50929 13.2241V13.2235H6.50898Z" fill="#7239EA"/>
</g>
<defs>
<clipPath id="clip0_1_926">
<rect width="32" height="32" fill="white"/>
</clipPath>
</defs>
</svg>
