<svg width="143" height="32" viewBox="0 0 143 32" fill="none" xmlns="http://www.w3.org/2000/svg">
<g clip-path="url(#clip0_1_925)">
<path fill-rule="evenodd" clip-rule="evenodd" d="M26.7054 24.3312C28.3339 24.1037 29.851 25.1623 30.0956 26.6961C30.3402 28.2329 29.2132 29.6618 27.5847 29.8922C25.9561 30.1196 24.4359 29.0611 24.1944 27.5272C23.9498 25.9904 25.0737 24.5616 26.7054 24.3312ZM15.5841 28.7753C15.3395 27.2385 13.8224 26.18 12.1907 26.4104C10.5621 26.6378 9.43823 28.0696 9.67973 29.6035C9.92433 31.1402 11.4414 32.1988 13.0731 31.9684C14.7017 31.738 15.8256 30.3092 15.5841 28.7753ZM6.50898 13.2235C6.35046 12.2073 7.09384 11.2613 8.17192 11.1067L24.256 8.80302L24.321 8.79428C25.0208 8.67763 25.6183 8.30729 26.0177 7.79697C26.4295 7.27499 26.6307 6.60138 26.5193 5.90152V5.89569C26.4078 5.20749 26.0084 4.62427 25.4511 4.23643C24.8969 3.84859 24.1786 3.65905 23.4386 3.76403L23.2838 3.78444L2.28339 6.82446C1.19572 6.98193 0.180185 6.27478 0.0210436 5.24919C-0.13624 4.23439 0.604974 3.29016 1.6815 3.13444L22.8661 0.0693463L23.021 0.0460176H23.0364C24.7858 -0.155192 26.4762 0.314298 27.8076 1.24161C29.1823 2.20101 30.173 3.6503 30.4424 5.36204L30.4671 5.50785V5.52243C30.6746 7.13502 30.204 8.69513 29.2597 9.93738L29.2937 9.96071C30.6405 10.8997 31.6189 12.314 31.9099 13.982L31.9502 14.1336V14.2444C32.1669 15.8891 31.6684 17.4842 30.6808 18.7381C29.6653 20.0329 28.1265 20.9631 26.309 21.2197L26.1542 21.2401H26.1511L14.2626 22.9116C13.1774 23.0641 12.1672 22.3576 12.0086 21.3349C11.8507 20.3169 12.5972 19.3706 13.6775 19.2187L25.7332 17.525L25.7394 17.5221C26.47 17.4171 27.0924 17.041 27.5042 16.519C27.9159 15.9941 28.1141 15.3205 28.0057 14.6235V14.6206C27.8943 13.9324 27.4949 13.3434 26.9376 12.9555C26.3834 12.5706 25.6743 12.3811 24.9375 12.4831H24.9189L24.8229 12.4977L8.76854 14.7985C7.68242 14.9542 6.66905 14.2479 6.50929 13.2241V13.2235H6.50898Z" fill="#7239EA"/>
</g>
<path d="M42.016 23V6.2H49.816C51.736 6.2 53.248 6.728 54.208 7.688C54.976 8.456 55.36 9.392 55.36 10.544V10.592C55.36 12.488 54.352 13.544 53.152 14.216C55.096 14.96 56.296 16.088 56.296 18.344V18.392C56.296 21.464 53.8 23 50.008 23H42.016ZM45.616 12.992H49.024C50.656 12.992 51.688 12.464 51.688 11.216V11.168C51.688 10.064 50.824 9.44 49.264 9.44H45.616V12.992ZM45.616 19.76H50.008C51.64 19.76 52.624 19.184 52.624 17.936V17.888C52.624 16.76 51.784 16.064 49.888 16.064H45.616V19.76ZM65.2643 23.288C61.2803 23.288 58.3283 20.336 58.3283 16.64V16.592C58.3283 12.896 61.3043 9.896 65.3123 9.896C69.2963 9.896 72.2483 12.848 72.2483 16.544V16.592C72.2483 20.288 69.2723 23.288 65.2643 23.288ZM65.3123 20.144C67.4003 20.144 68.6483 18.536 68.6483 16.64V16.592C68.6483 14.696 67.2803 13.04 65.2643 13.04C63.1763 13.04 61.9283 14.648 61.9283 16.544V16.592C61.9283 18.488 63.2963 20.144 65.3123 20.144ZM74.8898 23V10.136H78.5378V11.96C79.3778 10.88 80.4578 9.896 82.3058 9.896C85.0658 9.896 86.6738 11.72 86.6738 14.672V23H83.0258V15.824C83.0258 14.096 82.2098 13.208 80.8178 13.208C79.4258 13.208 78.5378 14.096 78.5378 15.824V23H74.8898ZM95.9389 23.288C92.0749 23.288 89.2189 20.576 89.2189 16.64V16.592C89.2189 12.92 91.8349 9.896 95.5789 9.896C99.8749 9.896 101.843 13.232 101.843 16.88C101.843 17.168 101.819 17.504 101.795 17.84H92.8429C93.2029 19.496 94.3549 20.36 95.9869 20.36C97.2109 20.36 98.0989 19.976 99.1069 19.04L101.195 20.888C99.9949 22.376 98.2669 23.288 95.9389 23.288ZM92.7949 15.56H98.2909C98.0749 13.928 97.1149 12.824 95.5789 12.824C94.0669 12.824 93.0829 13.904 92.7949 15.56ZM111.755 23L109.163 18.992L106.571 23H102.755L107.267 16.472L102.923 10.136H106.835L109.235 13.904L111.659 10.136H115.475L111.131 16.424L115.667 23H111.755ZM121.147 23.24C118.723 23.24 116.731 21.848 116.731 19.304V19.256C116.731 16.448 118.867 15.152 121.915 15.152C123.211 15.152 124.147 15.368 125.059 15.68V15.464C125.059 13.952 124.123 13.112 122.299 13.112C120.907 13.112 119.923 13.376 118.747 13.808L117.835 11.024C119.251 10.4 120.643 9.992 122.827 9.992C124.819 9.992 126.259 10.52 127.171 11.432C128.131 12.392 128.563 13.808 128.563 15.536V23H125.035V21.608C124.147 22.592 122.923 23.24 121.147 23.24ZM122.251 20.72C123.955 20.72 125.107 19.784 125.107 18.464V17.816C124.483 17.528 123.667 17.336 122.779 17.336C121.219 17.336 120.259 17.96 120.259 19.112V19.16C120.259 20.144 121.075 20.72 122.251 20.72ZM136.214 23.24C134.414 23.24 132.398 22.64 130.694 21.296L132.254 18.896C133.646 19.904 135.11 20.432 136.31 20.432C137.366 20.432 137.846 20.048 137.846 19.472V19.424C137.846 18.632 136.598 18.368 135.182 17.936C133.382 17.408 131.342 16.568 131.342 14.072V14.024C131.342 11.408 133.454 9.944 136.046 9.944C137.678 9.944 139.454 10.496 140.846 11.432L139.454 13.952C138.182 13.208 136.91 12.752 135.974 12.752C135.086 12.752 134.63 13.136 134.63 13.64V13.688C134.63 14.408 135.854 14.744 137.246 15.224C139.046 15.824 141.134 16.688 141.134 19.04V19.088C141.134 21.944 138.998 23.24 136.214 23.24Z" fill="#1E2248"/>
<defs>
<clipPath id="clip0_1_925">
<rect width="32" height="32" fill="white"/>
</clipPath>
</defs>
</svg>
