<svg width="25" height="24" viewBox="0 0 25 24" fill="none" xmlns="http://www.w3.org/2000/svg">
<path d="M20.7083 7.81994L13.0083 12.2799C12.6983 12.4599 12.3083 12.4599 11.9883 12.2799L4.28826 7.81994C3.73826 7.49994 3.59826 6.74994 4.01826 6.27994C4.30826 5.94994 4.63826 5.67994 4.98826 5.48994L10.4083 2.48994C11.5683 1.83994 13.4483 1.83994 14.6083 2.48994L20.0283 5.48994C20.3783 5.67994 20.7083 5.95994 20.9983 6.27994C21.3983 6.74994 21.2583 7.49994 20.7083 7.81994Z" fill="#7239EA"/>
<path d="M11.9305 14.1399V20.9599C11.9305 21.7199 11.1605 22.2199 10.4805 21.8899C8.42047 20.8799 4.95047 18.9899 4.95047 18.9899C3.73047 18.2999 2.73047 16.5599 2.73047 15.1299V9.96988C2.73047 9.17988 3.56047 8.67988 4.24047 9.06988L11.4305 13.2399C11.7305 13.4299 11.9305 13.7699 11.9305 14.1399Z" fill="#7239EA"/>
<path d="M13.0703 14.1399V20.9599C13.0703 21.7199 13.8403 22.2199 14.5203 21.8899C16.5803 20.8799 20.0503 18.9899 20.0503 18.9899C21.2703 18.2999 22.2703 16.5599 22.2703 15.1299V9.96988C22.2703 9.17988 21.4403 8.67988 20.7603 9.06988L13.5703 13.2399C13.2703 13.4299 13.0703 13.7699 13.0703 14.1399Z" fill="#7239EA"/>
</svg>
