<svg width="13" height="13" viewBox="0 0 13 13" fill="none" xmlns="http://www.w3.org/2000/svg">
<path d="M11.5105 3.12558V4.87516C11.5105 5.93222 11.184 6.37563 10.3198 6.48362C10.0458 6.51787 9.82051 6.28714 9.82051 6.011V5.62266C9.82051 3.93266 9.06759 3.17975 7.37759 3.17975H6.98926C6.71312 3.17975 6.48239 2.95442 6.51663 2.68041C6.62462 1.81624 7.06803 1.48975 8.12509 1.48975H9.87467C11.1151 1.48975 11.5105 1.88516 11.5105 3.12558Z" fill="#7239EA"/>
<path d="M9.00802 5.6226V7.3776C9.00802 8.6126 8.6126 9.00802 7.3776 9.00802H5.6226C4.3876 9.00802 3.99219 8.6126 3.99219 7.3776V5.6226C3.99219 4.3876 4.3876 3.99219 5.6226 3.99219H7.3776C8.6126 3.99219 9.00802 4.3876 9.00802 5.6226Z" fill="#7239EA"/>
<path d="M6.011 9.82051C6.28714 9.82051 6.51787 10.0458 6.48362 10.3198C6.37563 11.184 5.93222 11.5105 4.87516 11.5105H3.12558C1.88516 11.5105 1.48975 11.1151 1.48975 9.87467V8.12509C1.48975 7.06803 1.81624 6.62462 2.68041 6.51663C2.95442 6.48239 3.17975 6.71312 3.17975 6.98926V7.37759C3.17975 9.06759 3.93266 9.82051 5.62266 9.82051H6.011Z" fill="#7239EA"/>
</svg>
