<svg width="13" height="13" viewBox="0 0 13 13" fill="none" xmlns="http://www.w3.org/2000/svg">
<path d="M4.87516 1.0835C3.456 1.0835 2.30225 2.23725 2.30225 3.65641C2.30225 5.0485 3.391 6.17516 4.81016 6.22391C4.8535 6.2185 4.89683 6.2185 4.92933 6.22391C4.94016 6.22391 4.94558 6.22391 4.95641 6.22391C4.96183 6.22391 4.96183 6.22391 4.96725 6.22391C6.35391 6.17516 7.44266 5.0485 7.44808 3.65641C7.44808 2.23725 6.29433 1.0835 4.87516 1.0835Z" fill="#5D87FF"/>
<path d="M7.62652 7.6648C6.11527 6.6573 3.65069 6.6573 2.12861 7.6648C1.44069 8.12522 1.06152 8.74814 1.06152 9.41439C1.06152 10.0806 1.44069 10.6981 2.12319 11.1531C2.88152 11.6623 3.87819 11.9169 4.87486 11.9169C5.87152 11.9169 6.86819 11.6623 7.62652 11.1531C8.30902 10.6927 8.68819 10.0752 8.68819 9.40356C8.68277 8.73731 8.30902 8.1198 7.62652 7.6648Z" fill="#5D87FF"/>
<path d="M10.8281 3.97581C10.9147 5.02664 10.1672 5.94747 9.13265 6.07206C9.12723 6.07206 9.12723 6.07206 9.12182 6.07206H9.10557C9.07307 6.07206 9.04057 6.07206 9.01348 6.08289C8.48807 6.10997 8.00598 5.94206 7.64307 5.63331C8.20098 5.13497 8.52057 4.38747 8.45557 3.57497C8.41765 3.13622 8.26598 2.73539 8.03848 2.39414C8.24432 2.29122 8.48265 2.22622 8.7264 2.20456C9.78807 2.11247 10.736 2.90331 10.8281 3.97581Z" fill="#5D87FF"/>
<path d="M11.9115 8.98614C11.8681 9.51156 11.5323 9.96656 10.969 10.2753C10.4273 10.5732 9.74479 10.7141 9.06771 10.6978C9.45771 10.3457 9.68521 9.90697 9.72854 9.44114C9.78271 8.76947 9.46313 8.12489 8.82396 7.61031C8.46104 7.32322 8.03854 7.09572 7.57812 6.92781C8.77521 6.58114 10.281 6.81406 11.2073 7.56156C11.7056 7.96239 11.9602 8.46614 11.9115 8.98614Z" fill="#5D87FF"/>
</svg>
