<svg width="16" height="16" viewBox="0 0 16 16" fill="none" xmlns="http://www.w3.org/2000/svg">
<mask id="path-1-inside-1_801_4966" fill="white">
<path d="M2.60673e-06 8C2.44493e-06 9.85084 0.641757 11.6444 1.81592 13.0751C2.99008 14.5059 4.624 15.4852 6.43928 15.8463C8.25456 16.2074 10.1389 15.9279 11.7712 15.0554C13.4035 14.1829 14.6827 12.7714 15.391 11.0615C16.0993 9.35151 16.1928 7.44887 15.6555 5.67772C15.1183 3.90658 13.9835 2.37652 12.4446 1.34825C10.9056 0.319972 9.0578 -0.142891 7.21587 0.0385232C5.37394 0.219937 3.65189 1.0344 2.34315 2.34315L3.31709 3.31709C4.40051 2.23367 5.82607 1.55944 7.35087 1.40926C8.87567 1.25908 10.4054 1.64225 11.6793 2.49348C12.9533 3.34472 13.8927 4.61135 14.3375 6.07755C14.7822 7.54376 14.7049 9.11882 14.1185 10.5344C13.5322 11.9499 12.4732 13.1184 11.1219 13.8406C9.77063 14.5629 8.21073 14.7943 6.70799 14.4954C5.20525 14.1965 3.85264 13.3857 2.88064 12.2014C1.90863 11.017 1.37737 9.53218 1.37737 8L2.60673e-06 8Z"/>
</mask>
<path d="M2.60673e-06 8C2.44493e-06 9.85084 0.641757 11.6444 1.81592 13.0751C2.99008 14.5059 4.624 15.4852 6.43928 15.8463C8.25456 16.2074 10.1389 15.9279 11.7712 15.0554C13.4035 14.1829 14.6827 12.7714 15.391 11.0615C16.0993 9.35151 16.1928 7.44887 15.6555 5.67772C15.1183 3.90658 13.9835 2.37652 12.4446 1.34825C10.9056 0.319972 9.0578 -0.142891 7.21587 0.0385232C5.37394 0.219937 3.65189 1.0344 2.34315 2.34315L3.31709 3.31709C4.40051 2.23367 5.82607 1.55944 7.35087 1.40926C8.87567 1.25908 10.4054 1.64225 11.6793 2.49348C12.9533 3.34472 13.8927 4.61135 14.3375 6.07755C14.7822 7.54376 14.7049 9.11882 14.1185 10.5344C13.5322 11.9499 12.4732 13.1184 11.1219 13.8406C9.77063 14.5629 8.21073 14.7943 6.70799 14.4954C5.20525 14.1965 3.85264 13.3857 2.88064 12.2014C1.90863 11.017 1.37737 9.53218 1.37737 8L2.60673e-06 8Z" stroke="#1E2248" stroke-width="4" mask="url(#path-1-inside-1_801_4966)"/>
</svg>
