<svg width="16" height="16" viewBox="0 0 16 16" fill="none" xmlns="http://www.w3.org/2000/svg">
<path d="M7.58822 14.4997C3.82155 14.4997 0.754883 11.433 0.754883 7.66634C0.754883 3.89967 3.82155 0.833008 7.58822 0.833008C11.3549 0.833008 14.4215 3.89967 14.4215 7.66634C14.4215 11.433 11.3549 14.4997 7.58822 14.4997ZM7.58822 1.83301C4.36822 1.83301 1.75488 4.45301 1.75488 7.66634C1.75488 10.8797 4.36822 13.4997 7.58822 13.4997C10.8082 13.4997 13.4215 10.8797 13.4215 7.66634C13.4215 4.45301 10.8082 1.83301 7.58822 1.83301Z" fill="#778CA6"/>
<path d="M14.588 15.1666C14.4614 15.1666 14.3347 15.12 14.2347 15.02L11.9214 12.7067C11.7281 12.5133 11.7281 12.1933 11.9214 12C12.1147 11.8067 12.4347 11.8067 12.6281 12L14.9414 14.3133C15.1347 14.5066 15.1347 14.8266 14.9414 15.02C14.8414 15.12 14.7147 15.1666 14.588 15.1666Z" fill="#778CA6"/>
</svg>
