<svg width="16" height="16" viewBox="0 0 16 16" fill="none" xmlns="http://www.w3.org/2000/svg">
<path d="M7.66683 14.4987C3.90016 14.4987 0.833496 11.432 0.833496 7.66536C0.833496 3.8987 3.90016 0.832031 7.66683 0.832031C11.4335 0.832031 14.5002 3.8987 14.5002 7.66536C14.5002 11.432 11.4335 14.4987 7.66683 14.4987ZM7.66683 1.83203C4.44683 1.83203 1.8335 4.45203 1.8335 7.66536C1.8335 10.8787 4.44683 13.4987 7.66683 13.4987C10.8868 13.4987 13.5002 10.8787 13.5002 7.66536C13.5002 4.45203 10.8868 1.83203 7.66683 1.83203Z" fill="white"/>
<path d="M14.6666 15.1671C14.54 15.1671 14.4133 15.1205 14.3133 15.0205L12 12.7072C11.8067 12.5138 11.8067 12.1938 12 12.0005C12.1933 11.8072 12.5133 11.8072 12.7067 12.0005L15.02 14.3138C15.2133 14.5071 15.2133 14.8271 15.02 15.0205C14.92 15.1205 14.7933 15.1671 14.6666 15.1671Z" fill="white"/>
</svg>
