<svg width="24" height="24" viewBox="0 0 24 24" fill="none" xmlns="http://www.w3.org/2000/svg">
<path d="M11.4403 16.6047C11.0827 16.6047 10.7935 16.3155 10.7935 15.9579C10.7935 15.1119 10.9135 14.3811 11.1523 13.7667C11.3275 13.3035 11.6119 12.8367 12.0031 12.3651C12.2911 12.0219 12.8071 11.5203 13.5535 10.8627C14.2999 10.2039 14.7847 9.67946 15.0091 9.28826C15.2335 8.89706 15.3439 8.46986 15.3439 8.00666C15.3439 7.16786 15.0163 6.43226 14.3623 5.79746C13.7083 5.16266 12.9055 4.84586 11.9551 4.84586C11.0371 4.84586 10.2703 5.13386 9.65593 5.70866C9.20713 6.12866 8.86993 6.72146 8.64673 7.48706C8.49313 8.01266 7.98073 8.34866 7.43713 8.28386C6.74833 8.20226 6.29473 7.52066 6.49153 6.85466C6.79393 5.83106 7.30033 5.00666 8.00953 4.38026C8.99473 3.50787 10.2979 3.07227 11.9191 3.07227C13.6351 3.07227 15.0043 3.53907 16.0267 4.47386C17.0491 5.40866 17.5591 6.53786 17.5591 7.86266C17.5591 8.62946 17.3791 9.33626 17.0203 9.98186C16.6615 10.6287 15.9583 11.4147 14.9131 12.3411C14.2111 12.9639 13.7515 13.4235 13.5355 13.7187C13.3195 14.0139 13.1599 14.3535 13.0567 14.7363C12.9799 15.0207 12.9271 15.4383 12.8983 15.9867C12.8803 16.3323 12.5935 16.6035 12.2479 16.6035H11.4403V16.6047ZM10.6735 19.7006C10.6735 19.0227 11.2231 18.4731 11.9011 18.4731C12.5791 18.4731 13.1287 19.0227 13.1287 19.7006C13.1287 20.3786 12.5791 20.9282 11.9011 20.9282C11.2231 20.9282 10.6735 20.3786 10.6735 19.7006Z" fill="#1E2248"/>
</svg>
